<svg width="12" height="10" viewBox="0 0 12 10" fill="none" xmlns="http://www.w3.org/2000/svg">
<path d="M4.48998 1.79999C4.46331 1.69333 4.48998 1.59999 4.56998 1.51999C4.64998 1.43999 4.74331 1.39999 4.84998 1.39999H10.85C10.9566 1.39999 11.0433 1.43999 11.11 1.51999C11.1766 1.59999 11.21 1.69333 11.21 1.79999V8.51999C11.21 8.62666 11.1766 8.71999 11.11 8.79999C11.0433 8.87999 10.9566 8.91999 10.85 8.91999H4.84998C4.74331 8.91999 4.64998 8.87999 4.56998 8.79999C4.48998 8.71999 4.44998 8.62666 4.44998 8.51999V7.03999C4.44998 6.93333 4.41665 6.83999 4.34998 6.75999C4.28331 6.67999 4.19665 6.64666 4.08998 6.65999C3.98331 6.67333 3.89665 6.71333 3.82998 6.77999C3.76331 6.84666 3.72998 6.93333 3.72998 7.03999V8.51999C3.72998 8.83999 3.83665 9.11333 4.04998 9.33999C4.26331 9.56666 4.52998 9.67999 4.84998 9.67999H10.85C11.17 9.65333 11.4366 9.53333 11.65 9.31999C11.8633 9.10666 11.97 8.83999 11.97 8.51999V1.79999C11.97 1.47999 11.8633 1.20666 11.65 0.979993C11.4366 0.753326 11.17 0.653326 10.85 0.679993H4.84998C4.52998 0.653326 4.26331 0.753326 4.04998 0.979993C3.83665 1.20666 3.72998 1.47999 3.72998 1.79999V3.27999C3.72998 3.38666 3.76331 3.47999 3.82998 3.55999C3.89665 3.63999 3.98331 3.67333 4.08998 3.65999C4.19665 3.64666 4.28998 3.60666 4.36998 3.53999C4.44998 3.47333 4.48998 3.38666 4.48998 3.27999V1.79999ZM8.84998 5.43999C8.92998 5.35999 8.96998 5.26666 8.96998 5.15999C8.96998 5.05333 8.92998 4.95999 8.84998 4.87999L6.60998 2.63999C6.50331 2.53333 6.38331 2.49999 6.24998 2.53999C6.11665 2.57999 6.02998 2.67333 5.98998 2.81999C5.94998 2.96666 5.98331 3.07999 6.08998 3.15999L7.68998 4.79999H1.08998C0.983314 4.79999 0.896647 4.83333 0.82998 4.89999C0.763314 4.96666 0.72998 5.05333 0.72998 5.15999C0.72998 5.26666 0.763314 5.35333 0.82998 5.41999C0.896647 5.48666 0.983314 5.51999 1.08998 5.51999H7.68998L6.08998 7.15999C6.00998 7.21333 5.96998 7.29333 5.96998 7.39999C5.96998 7.50666 6.00331 7.59999 6.06998 7.67999C6.13665 7.75999 6.22331 7.79999 6.32998 7.79999C6.43665 7.79999 6.52998 7.75999 6.60998 7.67999L8.84998 5.43999Z" fill="white"/>
</svg>
