<svg width="13" height="13" viewBox="0 0 13 13" fill="none" xmlns="http://www.w3.org/2000/svg">
<path d="M8.82984 4.64C8.82984 5.28 8.60984 5.82 8.16984 6.26C7.72984 6.7 7.20318 6.92 6.58984 6.92C5.97651 6.92 5.44984 6.7 5.00984 6.26C4.56984 5.82 4.34984 5.28667 4.34984 4.66C4.34984 4.03334 4.56984 3.5 5.00984 3.06C5.44984 2.62 5.97651 2.4 6.58984 2.4C7.20318 2.4 7.72984 2.62 8.16984 3.06C8.60984 3.5 8.82984 4.02667 8.82984 4.64ZM0.589844 6.16C0.589844 5.06667 0.85651 4.06 1.38984 3.14C1.92318 2.22 2.64984 1.49334 3.56984 0.960004C4.48984 0.426671 5.49651 0.160004 6.58984 0.160004C7.68318 0.160004 8.68984 0.426671 9.60984 0.960004C10.5298 1.49334 11.2565 2.22 11.7898 3.14C12.3232 4.06 12.5898 5.06667 12.5898 6.16C12.5898 7.25334 12.3232 8.26 11.7898 9.18C11.2565 10.1 10.5298 10.8267 9.60984 11.36C8.68984 11.8933 7.68318 12.16 6.58984 12.16C5.49651 12.16 4.48984 11.8933 3.56984 11.36C2.64984 10.8267 1.92318 10.1 1.38984 9.18C0.85651 8.26 0.589844 7.25334 0.589844 6.16ZM6.58984 0.920004C5.57651 0.920004 4.64318 1.18667 3.78984 1.72C2.93651 2.25334 2.28984 2.97334 1.84984 3.88C1.40984 4.78667 1.24984 5.74 1.36984 6.74C1.48984 7.74 1.85651 8.64 2.46984 9.44C2.78984 8.93334 3.24318 8.53334 3.82984 8.24C4.57651 7.86667 5.49651 7.67334 6.58984 7.66C7.68318 7.64667 8.60318 7.84 9.34984 8.24C9.93651 8.53334 10.3898 8.93334 10.7098 9.44C11.3232 8.64 11.6898 7.74 11.8098 6.74C11.9298 5.74 11.7698 4.78667 11.3298 3.88C10.8898 2.97334 10.2432 2.25334 9.38984 1.72C8.53651 1.18667 7.60318 0.920004 6.58984 0.920004Z" fill="#1963CD"/>
</svg>
