<svg width="17" height="17" viewBox="0 0 17 17" fill="none" xmlns="http://www.w3.org/2000/svg">
<path d="M16.0813 14.6837C16.3625 14.9962 16.3625 15.465 16.05 15.7462L15.175 16.6212C14.8938 16.9337 14.425 16.9337 14.1125 16.6212L11.0188 13.5275C10.8625 13.3712 10.8 13.1837 10.8 12.9962V12.465C9.67505 13.34 8.30005 13.84 6.80005 13.84C3.2063 13.84 0.300049 10.9337 0.300049 7.34C0.300049 3.7775 3.2063 0.839996 6.80005 0.839996C10.3625 0.839996 13.3 3.7775 13.3 7.34C13.3 8.87125 12.7688 10.2462 11.925 11.34H12.425C12.6125 11.34 12.8 11.4337 12.9563 11.5587L16.0813 14.6837ZM6.80005 11.34C8.98755 11.34 10.8 9.55875 10.8 7.34C10.8 5.1525 8.98755 3.34 6.80005 3.34C4.5813 3.34 2.80005 5.1525 2.80005 7.34C2.80005 9.55875 4.5813 11.34 6.80005 11.34Z" fill="#6C757D"/>
</svg>
